<svg width="16" height="16" viewBox="0 0 16 16" fill="none" xmlns="http://www.w3.org/2000/svg">
<path fill-rule="evenodd" clip-rule="evenodd" d="M0 8C0 3.58172 3.58172 0 8 0C12.4183 0 16 3.58172 16 8C16 12.4183 12.4183 16 8 16C3.58172 16 0 12.4183 0 8Z" fill="#CBD5E1"/>
<path d="M7.03578 9.70619L11.3367 5.20301C11.5952 4.93233 12.0144 4.93233 12.2729 5.20301C12.5314 5.4737 12.5314 5.91257 12.2729 6.18325L7.03578 11.6667L3.994 8.48183C3.73548 8.21115 3.73548 7.77228 3.994 7.50159C4.25253 7.23091 4.67169 7.23091 4.93021 7.50159L7.03578 9.70619Z" fill="white"/>
</svg>
